<svg width="69" height="144" viewBox="0 0 69 144" fill="none" xmlns="http://www.w3.org/2000/svg">
<path d="M34.8442 2.0002C38.2796 1.98602 43.2908 2.74135 43.4775 3.6666C43.6643 4.59185 42.8016 4.98484 42.5391 5.88847C42.1332 7.2856 42.664 8.22458 42.1637 9.59159C41.8519 10.4438 41.0926 10.7239 41.0377 11.6283C40.9863 12.4731 41.0377 13.109 41.7884 13.665C42.5391 14.221 54.9641 18.3885 60.1811 24.9595C64.4194 30.2977 66.75 35.0737 66.75 41.0681V115.686C66.75 119.122 65.5226 121.875 61.9375 126.25C58.3523 130.625 56.8257 130.28 55.375 132.375C53.9243 134.47 50.2522 140.94 47.0625 141.125C43.8728 141.31 38.2215 137.164 35.5949 137.534C32.9683 137.905 29.7777 142.348 25.6478 141.978C21.5179 141.608 19.2667 136.609 19.2667 136.609C19.2667 136.609 15.5007 136.734 13.8125 135.437C12.1243 134.141 12.0625 131.937 10.3125 130.625C8.56251 129.312 1.99909 122.537 2.00001 115.686C2.00093 108.835 2.00007 64.125 2.00001 41.0681C2 35.25 5.0625 27.375 12.0625 22.125C19.0625 16.875 26.3985 14.0352 27.9 13.665C29.4014 13.2948 29.0261 12.5343 29.0261 11.6283C29.0261 10.7223 28.2453 10.4311 27.9 9.59159C27.2566 8.02742 27.1492 5.333 27.1492 5.333C27.1492 5.333 27.1492 4.22216 26.3985 3.6666C25.6478 3.11104 31.4807 2.01408 34.8442 2.0002Z" stroke="url(#paint0_linear_731_13019)" stroke-width="4" stroke-linejoin="round"/>
<path fill-rule="evenodd" clip-rule="evenodd" d="M33.3759 68.8668C33.258 69.0949 33.2566 69.3859 33.3712 69.85C33.5952 70.7569 33.669 71.7988 33.5621 72.5433L33.5306 72.7633L33.0199 72.8076C31.4934 72.9402 30.1412 73.3007 28.9733 73.8865C28.1198 74.3146 27.6496 74.6499 26.8902 75.3718C26.2049 76.0232 25.9168 76.363 25.4588 77.0598C24.5833 78.392 23.9122 80.2678 23.7444 81.8518L23.7167 82.1132L24.0436 82.1174C25.6116 82.1374 28.1781 81.6085 29.6928 80.9532C29.9104 80.8591 30.1081 80.7805 30.1321 80.7786C30.1561 80.7767 30.2216 80.8503 30.2776 80.9421C30.474 81.2639 30.9897 81.9159 31.2722 82.1995C31.9195 82.8493 33.1289 83.7411 33.884 84.1255L34.1959 84.2843L34.4415 84.1604C34.8064 83.9764 35.6681 83.4257 36.0817 83.1122C36.6486 82.6824 37.6331 81.6751 37.9421 81.2086C38.0821 80.9974 38.209 80.8114 38.2241 80.7954C38.2393 80.7794 38.4222 80.8378 38.6305 80.9252C39.6217 81.341 40.3341 81.5554 41.5246 81.7958C42.4377 81.9801 43.396 82.0965 44.1419 82.1136L44.6707 82.1257L44.6535 81.9176C44.6255 81.5802 44.497 80.8803 44.3787 80.4206C43.9805 78.8727 43.3385 77.5359 42.4177 76.3374C42.0181 75.8171 40.9471 74.8179 40.3975 74.4524C39.2157 73.6665 37.733 73.1197 36.2101 72.9084C35.9001 72.8654 35.599 72.8232 35.541 72.8147C35.4474 72.801 35.4376 72.772 35.4542 72.5599C35.5507 71.3303 35.4282 70.1162 35.1102 69.1529C34.9422 68.6439 34.7192 68.4393 34.2857 68.3963C33.9419 68.3622 33.5254 68.5776 33.3759 68.8668ZM24.95 84.2469C24.3248 85.7266 24.2087 87.054 24.5853 88.4159C24.7282 88.9325 24.9224 89.3776 25.2165 89.8628L25.4553 90.2567L25.7362 90.2387C27.7761 90.1076 29.5489 88.9009 30.6075 86.923C30.9266 86.3269 31.1431 85.7547 31.2899 85.12L31.3951 84.6649L31.1899 84.5004C31.077 84.4099 30.6499 84.0194 30.2406 83.6326L29.4966 82.9293L29.0075 83.0842C28.0916 83.3743 26.7519 83.6514 25.649 83.779C25.3627 83.8121 25.1243 83.8459 25.1191 83.8541C25.114 83.8623 25.0379 84.0391 24.95 84.2469ZM32.87 86.1849C32.6039 87.077 32.0625 88.1578 31.524 88.8717C31.3968 89.0403 31.2519 89.2333 31.202 89.3008C31.1251 89.4047 31.1262 89.4917 31.2094 89.8721C31.4961 91.1843 32.1504 92.2722 33.1392 93.0805C33.5091 93.3828 34.1052 93.7736 34.1966 93.7736C34.2927 93.7736 34.9003 93.3714 35.2866 93.0521C36.2346 92.2685 36.8752 91.2113 37.1631 89.9553C37.2391 89.6237 37.2593 89.416 37.2223 89.3488C37.1914 89.2927 37.0403 89.0851 36.8866 88.8876C36.3405 88.1859 35.8096 87.1331 35.5149 86.1674C35.4339 85.902 35.36 85.6863 35.3507 85.6881C35.3414 85.6898 35.0889 85.8094 34.7897 85.9538C34.4905 86.0982 34.2099 86.2112 34.1662 86.2048C34.1224 86.1984 33.8503 86.0776 33.5615 85.9362C33.2727 85.7949 33.0303 85.6882 33.0227 85.6991C33.0152 85.7101 32.9464 85.9286 32.87 86.1849ZM26.8069 92.4531C26.8019 93.4946 27.0579 94.4969 27.5714 95.4465C27.8727 96.0035 28.5272 96.7972 28.9132 97.0737C29.0427 97.1665 29.0841 97.1662 29.3351 97.0708C30.1146 96.7743 30.7434 96.3337 31.4319 95.6018C31.7096 95.3066 31.9937 94.9706 32.0631 94.8551L32.1892 94.6452L31.4956 93.9515C30.8938 93.3495 30.7665 93.2017 30.5329 92.8335C30.179 92.2755 29.9552 91.825 29.7499 91.2575C29.6575 91.0021 29.5746 90.7936 29.5656 90.7941C29.5565 90.7947 29.3963 90.8855 29.2094 90.9959C28.603 91.3543 27.8527 91.6626 27.1806 91.8298C27.0139 91.8712 26.8621 91.9205 26.8434 91.9393C26.8246 91.958 26.8082 92.1892 26.8069 92.4531ZM37.1033 85.119C37.2592 85.7805 37.3958 86.1577 37.6909 86.7414C38.1043 87.5588 38.3486 87.8954 39.0047 88.5509C39.5177 89.0635 39.6225 89.1494 40.026 89.3878C40.6976 89.7846 41.2722 90.0126 41.9203 90.1395C42.4248 90.2383 42.9021 90.2669 42.9667 90.2023C42.9982 90.1708 43.143 89.9335 43.2884 89.6751C44.2091 88.0385 44.2571 86.1298 43.4259 84.2099L43.2673 83.8436L42.6264 83.7657C41.5212 83.6314 40.047 83.3153 39.2269 83.0368L38.8993 82.9256L38.1531 83.631C37.7426 84.019 37.3145 84.4105 37.2016 84.5009L36.9964 84.6654L37.1033 85.119ZM33.5282 95.917C33.1875 96.455 32.6966 97.0035 32.1415 97.4664C31.8529 97.7071 31.5774 97.9398 31.5292 97.9837C31.4506 98.0554 31.4598 98.1034 31.6208 98.4558C32.0917 99.4871 33.0054 100.475 33.9694 100.996C34.1903 101.115 34.2043 101.115 34.4251 100.996C35.3925 100.474 36.3009 99.4911 36.7733 98.4563C36.934 98.1042 36.9434 98.0558 36.865 97.984C36.817 97.9399 36.5548 97.7184 36.2823 97.4917C35.6495 96.9652 35.2185 96.4701 34.6958 95.6691C34.6148 95.545 34.6007 95.5427 34.4122 95.6235C34.2531 95.6916 34.1723 95.6919 34.0048 95.6249C33.7732 95.5322 33.7709 95.5337 33.5282 95.917ZM38.6394 91.2618C38.4663 91.7616 38.2167 92.2673 37.8664 92.8281C37.6565 93.164 37.5181 93.3245 36.9125 93.9333L36.2042 94.6455L36.3304 94.8555C36.3997 94.971 36.6838 95.307 36.9616 95.6023C37.6503 96.3344 38.2792 96.775 39.0587 97.0717C39.3097 97.1672 39.3511 97.1674 39.4806 97.0747C39.8717 96.7946 40.4774 96.0597 40.8369 95.4289C41.1 94.9673 41.4293 93.992 41.5168 93.4147C41.5921 92.9183 41.6138 92.005 41.5518 91.943C41.5318 91.9229 41.379 91.8726 41.2123 91.8311C40.5351 91.6625 39.7021 91.3167 39.1279 90.9656C38.9615 90.8638 38.8174 90.7912 38.8076 90.8041C38.7978 90.817 38.7221 91.023 38.6394 91.2618Z" fill="url(#paint1_linear_731_13019)"/>
<defs>
<linearGradient id="paint0_linear_731_13019" x1="67.7371" y1="99.5596" x2="0.302993" y2="98.5818" gradientUnits="userSpaceOnUse">
<stop stop-color="#1B2AC9"/>
<stop offset="1" stop-color="#0073F0"/>
</linearGradient>
<linearGradient id="paint1_linear_731_13019" x1="45.9339" y1="95.007" x2="20.354" y2="74.9333" gradientUnits="userSpaceOnUse">
<stop stop-color="#1B2AC9"/>
<stop offset="1" stop-color="#0073F0"/>
</linearGradient>
</defs>
</svg>
