<svg width="13" height="10" viewBox="0 0 13 10" fill="none" xmlns="http://www.w3.org/2000/svg">
<path fill-rule="evenodd" clip-rule="evenodd" d="M12.4782 1.52285C12.7999 1.11532 12.7304 0.524156 12.3229 0.202372C11.9189 -0.116706 11.3334 -0.0514799 11.0094 0.348693L6.12324 6.38496C5.7312 6.86928 4.9965 6.88101 4.5892 6.40946L1.64175 2.9971C1.30434 2.60648 0.714138 2.56338 0.32356 2.90084C-0.0669365 3.23823 -0.110027 3.82829 0.22731 4.21883L4.17498 8.78918C4.17561 8.78991 4.17563 8.79099 4.17502 8.79174C4.17442 8.79249 4.17443 8.79356 4.17507 8.79429L4.72465 9.42835C5.13556 9.90242 5.87646 9.88542 6.2652 9.393L12.4782 1.52285Z" fill="#1B2AC9"/>
</svg>
