<?xml version="1.0" encoding="UTF-8"?><!DOCTYPE svg PUBLIC "-//W3C//DTD SVG 1.1//EN" "http://www.w3.org/Graphics/SVG/1.1/DTD/svg11.dtd"><svg xmlns="http://www.w3.org/2000/svg" xmlns:xlink="http://www.w3.org/1999/xlink"><symbol id="icon-arrow-white-right" viewBox="0 0 18 18">
    <path d="M15.53 14.47l-2.55-2.54a5.94 5.94 0 00.26-7.01 6 6 0 10-1.31 8.06l2.54 2.55a.75.75 0 001.23-.24.75.75 0 00-.17-.82zM3.75 8.25a4.5 4.5 0 119 0 4.5 4.5 0 01-9 0z" fill="currentColor"/>
</symbol><symbol id="icon-hamburger" viewBox="0 0 40 34">
    <path fill="currentColor" d="M2.318 4.775h23.857c1.281 0 2.32-1.066 2.32-2.385 0-1.316-1.039-2.386-2.32-2.386H2.318c-1.282 0-2.32 1.07-2.32 2.386 0 1.32 1.038 2.385 2.32 2.385zm35.364 9.84H2.318c-1.282 0-2.32 1.07-2.32 2.386 0 1.32 1.038 2.385 2.32 2.385h35.364c1.281 0 2.32-1.066 2.32-2.385 0-1.316-1.039-2.386-2.32-2.386zm0 14.61H2.318c-1.282 0-2.32 1.071-2.32 2.386 0 1.32 1.038 2.386 2.32 2.386h35.364c1.281 0 2.32-1.067 2.32-2.386 0-1.315-1.039-2.386-2.32-2.386z"/>
</symbol><symbol id="icon-search" viewBox="0 0 18 18">
    <path d="M15.53 14.47l-2.55-2.54a5.94 5.94 0 00.26-7.01 6 6 0 10-1.31 8.06l2.54 2.55a.75.75 0 001.23-.24.75.75 0 00-.17-.82zM3.75 8.25a4.5 4.5 0 119 0 4.5 4.5 0 01-9 0z" fill="currentColor"/>
</symbol></svg>