<svg width="130" height="32" viewBox="0 0 130 32" fill="none" xmlns="http://www.w3.org/2000/svg">
<path fill-rule="evenodd" clip-rule="evenodd" d="M11.74 1.08593C10.0897 1.9222 1.11792 11.6587 0.437339 13.352C-0.110316 14.7154 -0.149072 17.0276 0.351858 18.4729C0.563024 19.0815 2.72249 21.7962 5.15108 24.5056C12.9881 33.2489 15.3758 33.4508 22.4214 25.9632C24.7181 23.5223 26.2579 22.1851 26.7715 22.1851C27.2851 22.1851 28.8248 23.5223 31.1216 25.9632C35.8762 31.0162 37.8665 31.9653 41.4303 30.88C42.4988 30.5546 43.8625 29.3806 46.733 26.3136C48.8584 24.0428 50.8676 22.1851 51.1982 22.1851C52.3406 22.1851 53.7666 23.3312 56.6534 26.5699C60.8615 31.2908 63.4042 32.272 66.9085 30.5276C68.9438 29.5145 76.859 21.0362 77.8359 18.8229C78.6462 16.9867 78.7617 15.2613 78.1865 13.5701C77.6381 11.9563 68.537 1.99014 66.7952 1.09586C64.9515 0.149539 62.8453 0.148744 60.9999 1.09427C60.203 1.50268 58.2471 3.29957 56.6534 5.08734C53.7833 8.30729 52.3399 9.47212 51.2207 9.47212C50.902 9.47212 48.8577 7.60371 46.6776 5.32014C42.6893 1.14234 41.4542 0.34222 38.9843 0.337056C37.1088 0.332686 35.4333 1.49354 31.5493 5.48779C28.8904 8.22267 27.4071 9.47053 26.8157 9.47132C26.2195 9.47172 24.838 8.29657 22.3269 5.65306C17.3281 0.390291 15.0516 -0.591786 11.74 1.08593ZM15.3758 11.2408C18.1926 12.5316 17.6562 16.624 14.588 17.2556C13.4217 17.4956 13.3699 17.5814 13.3699 19.2774C13.3699 20.8868 13.2956 21.0369 12.5549 20.9217C11.7711 20.7994 11.736 20.621 11.6367 16.2501C11.5802 13.7508 11.6157 11.4712 11.7161 11.1848C11.9576 10.4943 13.8092 10.5225 15.3758 11.2408ZM41.6219 12.0544C41.6219 12.9666 41.489 13.0476 39.992 13.0476C38.6036 13.0476 38.3621 13.1652 38.3621 13.8422C38.3621 14.5045 38.6036 14.6368 39.8109 14.6368C41.1793 14.6368 41.2597 14.7031 41.2597 15.8286C41.2597 16.9541 41.1793 17.0204 39.8109 17.0204C38.6178 17.0204 38.3621 17.1567 38.3621 17.7924C38.3621 18.4161 38.6569 18.5873 39.9014 18.6862C41.2724 18.7947 41.4408 18.9171 41.4408 19.8014C41.4408 20.7588 41.3564 20.7946 39.0865 20.7946H36.7321L36.6303 15.9279L36.5286 11.0612H39.0752C41.5502 11.0612 41.6219 11.089 41.6219 12.0544ZM67.3385 12.0544C67.3385 12.9225 67.1806 13.0476 66.0838 13.0476H64.8291L64.7255 16.9211C64.6299 20.4919 64.5654 20.7946 63.8975 20.7946C63.2296 20.7946 63.1651 20.4919 63.0695 16.9211L62.9659 13.0476H61.7113C60.6145 13.0476 60.4566 12.9225 60.4566 12.0544C60.4566 11.0648 60.4685 11.0612 63.8975 11.0612C67.3265 11.0612 67.3385 11.0648 67.3385 12.0544ZM89.3124 11.3262C89.1795 11.4716 89.0708 13.6169 89.0708 16.0936V20.596H91.4251C93.5147 20.596 93.7795 20.5094 93.7795 19.824C93.7795 19.2003 93.4846 19.0291 92.2401 18.9302C90.8692 18.8217 90.7007 18.6993 90.7007 17.815C90.7007 16.9541 90.8815 16.8055 92.059 16.6986C93.1069 16.6033 93.4173 16.4047 93.4173 15.8286C93.4173 15.2525 93.1069 15.0539 92.059 14.9586C90.968 14.8596 90.6779 14.6594 90.5848 13.9415C90.4794 13.1263 90.6152 13.0476 92.1242 13.0476C93.6483 13.0476 93.7795 12.969 93.7795 12.0544C93.7795 11.1085 93.6788 11.0612 91.6667 11.0612C90.5044 11.0612 89.445 11.1804 89.3124 11.3262ZM95.6358 11.9551C95.8741 12.4466 96.4634 13.5053 96.9459 14.3078L97.8224 15.7662L96.5254 17.9902C95.8118 19.2134 95.2283 20.3 95.2283 20.4049C95.2283 20.5102 95.5949 20.5948 96.0433 20.5932C96.6011 20.5912 97.1599 20.0723 97.8152 18.9476L98.7721 17.3053L99.7649 18.9504C100.486 20.1451 101.004 20.596 101.657 20.596C102.659 20.596 102.726 20.789 100.446 17.0657L99.6219 15.7205L100.866 13.694C102.301 11.3568 102.363 11.0612 101.421 11.0612C101.042 11.0612 100.244 11.7283 99.6472 12.5439L98.5628 14.0265L97.7652 12.5439C97.1915 11.4768 96.7202 11.0612 96.0853 11.0612C95.2834 11.0612 95.2424 11.1427 95.6358 11.9551ZM103.921 15.8286C103.921 20.331 103.961 20.596 104.646 20.596C105.263 20.596 105.37 20.331 105.37 18.8082C105.37 17.2997 105.481 17.0204 106.077 17.0204C107.301 17.0204 108.566 16.1631 108.987 15.0475C109.822 12.8379 108.105 11.0612 105.135 11.0612H103.921V15.8286ZM110.803 15.8286V20.596H113.157C115.27 20.596 115.512 20.5145 115.512 19.8014C115.512 19.1244 115.27 19.0068 113.882 19.0068C112.312 19.0068 112.252 18.9627 112.252 17.815C112.252 16.6895 112.332 16.6232 113.701 16.6232C114.893 16.6232 115.15 16.4869 115.15 15.8524C115.15 15.249 114.855 15.0555 113.791 14.9586C112.7 14.8596 112.41 14.6594 112.317 13.9415C112.212 13.1263 112.348 13.0476 113.857 13.0476C115.381 13.0476 115.512 12.969 115.512 12.0544C115.512 11.097 115.427 11.0612 113.157 11.0612H110.803V15.8286ZM117.323 15.7781C117.323 20.331 117.363 20.596 118.047 20.596C118.664 20.596 118.772 20.331 118.772 18.8082C118.772 17.8249 118.897 17.0204 119.051 17.0204C119.204 17.0204 119.731 17.8249 120.22 18.8082C120.875 20.1216 121.331 20.596 121.939 20.596H122.768L121.842 18.5925L120.917 16.589L121.655 15.5592C123.233 13.3595 122.153 11.4692 119.137 11.1514L117.323 10.9603V15.7781ZM123.48 12.0544C123.48 12.9245 123.637 13.0476 124.748 13.0476H126.016V16.8218C126.016 20.331 126.066 20.596 126.74 20.596C127.414 20.596 127.465 20.331 127.465 16.8218V13.0476H128.732C129.843 13.0476 130 12.9245 130 12.0544C130 11.0688 129.976 11.0612 126.74 11.0612C123.505 11.0612 123.48 11.0688 123.48 12.0544ZM13.3699 14.0408C13.3699 14.901 13.5162 15.0666 14.1848 14.9625C14.7198 14.8791 14.9998 14.5625 14.9998 14.0408C14.9998 13.5192 14.7198 13.2026 14.1848 13.1192C13.5162 13.0151 13.3699 13.1807 13.3699 14.0408ZM107.462 13.5148C108.053 14.1628 107.347 15.034 106.231 15.034C105.554 15.034 105.37 14.8219 105.37 14.0408C105.37 13.2693 105.556 13.0476 106.203 13.0476C106.661 13.0476 107.228 13.2578 107.462 13.5148ZM120.828 13.6837C121.072 14.3813 120.398 15.0185 119.406 15.0281C118.969 15.0321 118.772 14.7242 118.772 14.0408C118.772 13.2431 118.952 13.0476 119.688 13.0476C120.195 13.0476 120.705 13.3321 120.828 13.6837ZM31.415 15.9279C31.303 16.7924 31.1524 16.8254 26.862 16.9334L22.425 17.0451V16.0396V15.034H26.9779C31.4921 15.034 31.5294 15.0416 31.415 15.9279ZM56.0449 15.9279C55.933 16.7924 55.7823 16.8254 51.492 16.9334L47.055 17.0451V16.0396V15.034H51.6079C56.1221 15.034 56.1594 15.0416 56.0449 15.9279Z" fill="white"/>
</svg>
