<svg width="40" height="56" viewBox="0 0 40 56" fill="none" xmlns="http://www.w3.org/2000/svg">
<path fill-rule="evenodd" clip-rule="evenodd" d="M40 20.1204C40 24.7082 38.4424 28.9323 35.8272 32.2926L20.2042 55.6973L4.95655 32.8549C2.06842 29.4094 0.329468 24.968 0.329468 20.1204C0.329468 9.1657 9.21002 0.285156 20.1647 0.285156C31.1194 0.285156 40 9.1657 40 20.1204ZM20.2041 29.1727C25.3989 29.1727 29.6101 24.9615 29.6101 19.7667C29.6101 14.5719 25.3989 10.3607 20.2041 10.3607C15.0093 10.3607 10.7981 14.5719 10.7981 19.7667C10.7981 24.9615 15.0093 29.1727 20.2041 29.1727Z" fill="url(#paint0_linear_605_890)"/>
<defs>
<linearGradient id="paint0_linear_605_890" x1="40.6048" y1="38.8993" x2="-0.698122" y2="37.9723" gradientUnits="userSpaceOnUse">
<stop stop-color="#1B2AC9"/>
<stop offset="1" stop-color="#0073F0"/>
</linearGradient>
</defs>
</svg>
